<svg xmlns="http://www.w3.org/2000/svg" xmlns:xlink="http://www.w3.org/1999/xlink" id="Capa_1" data-name="Capa 1" viewBox="0 0 138.79 120"><defs><style>.cls-1{fill:none;}.cls-2{fill:#faf9ed;}.cls-3{fill:#fff;}.cls-4{clip-path:url(#clip-path);}.cls-5{fill:url(#Degradado_sin_nombre_151);}.cls-6{clip-path:url(#clip-path-2);}.cls-7{fill:url(#Degradado_sin_nombre_152);}.cls-8{clip-path:url(#clip-path-3);}.cls-9{fill:url(#Degradado_sin_nombre_153);}.cls-10{clip-path:url(#clip-path-4);}.cls-11{fill:url(#Degradado_sin_nombre_154);}.cls-12{clip-path:url(#clip-path-5);}.cls-13{fill:url(#Degradado_sin_nombre_155);}.cls-14{clip-path:url(#clip-path-6);}.cls-15{fill:url(#Degradado_sin_nombre_156);}.cls-16{clip-path:url(#clip-path-7);}.cls-17{fill:url(#Degradado_sin_nombre_157);}.cls-18{clip-path:url(#clip-path-8);}.cls-19{fill:url(#Degradado_sin_nombre_158);}.cls-20{clip-path:url(#clip-path-9);}.cls-21{fill:url(#Degradado_sin_nombre_159);}.cls-22{clip-path:url(#clip-path-10);}.cls-23{fill:url(#Degradado_sin_nombre_160);}.cls-24{clip-path:url(#clip-path-11);}.cls-25{fill:url(#Degradado_sin_nombre_161);}.cls-26{clip-path:url(#clip-path-12);}.cls-27{fill:url(#Degradado_sin_nombre_162);}.cls-28{clip-path:url(#clip-path-13);}.cls-29{fill:url(#Degradado_sin_nombre_163);}.cls-30{clip-path:url(#clip-path-14);}.cls-31{fill:url(#Degradado_sin_nombre_164);}.cls-32{clip-path:url(#clip-path-15);}.cls-33{fill:url(#Degradado_sin_nombre_165);}.cls-34{clip-path:url(#clip-path-16);}.cls-35{fill:url(#Degradado_sin_nombre_166);}.cls-36{clip-path:url(#clip-path-17);}.cls-37{fill:url(#Degradado_sin_nombre_167);}.cls-38{clip-path:url(#clip-path-18);}.cls-39{fill:url(#Degradado_sin_nombre_168);}.cls-40{clip-path:url(#clip-path-19);}.cls-41{fill:url(#Degradado_sin_nombre_169);}.cls-42{clip-path:url(#clip-path-20);}.cls-43{fill:url(#Degradado_sin_nombre_170);}.cls-44{clip-path:url(#clip-path-21);}.cls-45{fill:url(#Degradado_sin_nombre_171);}.cls-46{clip-path:url(#clip-path-22);}.cls-47{fill:url(#Degradado_sin_nombre_172);}.cls-48{clip-path:url(#clip-path-23);}.cls-49{fill:url(#Degradado_sin_nombre_173);}.cls-50{clip-path:url(#clip-path-24);}.cls-51{fill:url(#Degradado_sin_nombre_174);}.cls-52{clip-path:url(#clip-path-25);}.cls-53{fill:url(#Degradado_sin_nombre_175);}.cls-54{clip-path:url(#clip-path-26);}.cls-55{fill:url(#Degradado_sin_nombre_176);}.cls-56{clip-path:url(#clip-path-27);}.cls-57{fill:url(#Degradado_sin_nombre_177);}.cls-58{clip-path:url(#clip-path-28);}.cls-59{fill:url(#Degradado_sin_nombre_178);}.cls-60{clip-path:url(#clip-path-29);}.cls-61{fill:url(#Degradado_sin_nombre_179);}.cls-62{clip-path:url(#clip-path-30);}.cls-63{fill:url(#Degradado_sin_nombre_180);}.cls-64{clip-path:url(#clip-path-31);}.cls-65{fill:url(#Degradado_sin_nombre_181);}.cls-66{clip-path:url(#clip-path-32);}.cls-67{fill:url(#Degradado_sin_nombre_182);}.cls-68{clip-path:url(#clip-path-33);}.cls-69{fill:url(#Degradado_sin_nombre_183);}.cls-70{clip-path:url(#clip-path-34);}.cls-71{fill:url(#Degradado_sin_nombre_184);}.cls-72{clip-path:url(#clip-path-35);}.cls-73{fill:url(#Degradado_sin_nombre_185);}.cls-74{clip-path:url(#clip-path-36);}.cls-75{fill:url(#Degradado_sin_nombre_186);}.cls-76{clip-path:url(#clip-path-37);}.cls-77{fill:url(#Degradado_sin_nombre_187);}.cls-78{clip-path:url(#clip-path-38);}.cls-79{fill:url(#Degradado_sin_nombre_188);}.cls-80{clip-path:url(#clip-path-39);}.cls-81{fill:url(#Degradado_sin_nombre_189);}.cls-82{clip-path:url(#clip-path-40);}.cls-83{fill:url(#Degradado_sin_nombre_190);}.cls-84{clip-path:url(#clip-path-41);}.cls-85{fill:url(#Degradado_sin_nombre_191);}.cls-86{clip-path:url(#clip-path-42);}.cls-87{fill:url(#Degradado_sin_nombre_192);}.cls-88{clip-path:url(#clip-path-43);}.cls-89{fill:url(#Degradado_sin_nombre_193);}.cls-90{clip-path:url(#clip-path-44);}.cls-91{fill:url(#Degradado_sin_nombre_194);}.cls-92{clip-path:url(#clip-path-45);}.cls-93{fill:url(#Degradado_sin_nombre_195);}.cls-94{clip-path:url(#clip-path-46);}.cls-95{fill:url(#Degradado_sin_nombre_196);}.cls-96{clip-path:url(#clip-path-47);}.cls-97{fill:url(#Degradado_sin_nombre_197);}.cls-98{clip-path:url(#clip-path-48);}.cls-99{fill:url(#Degradado_sin_nombre_198);}.cls-100{clip-path:url(#clip-path-49);}.cls-101{fill:url(#Degradado_sin_nombre_199);}.cls-102{clip-path:url(#clip-path-50);}.cls-103{fill:url(#Degradado_sin_nombre_200);}.cls-104{fill:#002a6e;}</style><clipPath id="clip-path"><polygon class="cls-1" points="69.33 46.96 69.33 48.76 74.05 48.68 74.05 46.6 69.33 46.96"></polygon></clipPath><radialGradient id="Degradado_sin_nombre_151" cx="446.95" cy="994.21" r="1.06" gradientTransform="matrix(-32.56, 0, 0, 32.56, 14598.45, -32335.76)" gradientUnits="userSpaceOnUse"><stop offset="0" stop-color="#fff"></stop><stop offset="1" stop-color="#cabc9f"></stop></radialGradient><clipPath id="clip-path-2"><polygon class="cls-1" points="67.59 42.81 68.92 44.32 74.05 43.33 74.05 41.15 67.59 42.81"></polygon></clipPath><radialGradient id="Degradado_sin_nombre_152" cx="446.95" cy="994.21" r="1.06" gradientTransform="matrix(-32.56, 0, 0, 32.56, 14596.03, -32335.94)" xlink:href="#Degradado_sin_nombre_151"></radialGradient><clipPath id="clip-path-3"><polygon class="cls-1" points="69.27 44.71 69.33 44.77 69.33 46.52 74.05 46.03 74.05 43.91 69.27 44.71"></polygon></clipPath><radialGradient id="Degradado_sin_nombre_153" cx="446.95" cy="994.21" r="1.06" gradientTransform="matrix(-32.56, 0, 0, 32.56, 14597.33, -32336.01)" xlink:href="#Degradado_sin_nombre_151"></radialGradient><clipPath id="clip-path-4"><polygon class="cls-1" points="13.45 51.74 13.45 53.85 18.18 53.07 18.18 51.24 13.45 51.74"></polygon></clipPath><radialGradient id="Degradado_sin_nombre_154" cx="446.95" cy="994.21" r="1.06" gradientTransform="matrix(-32.56, 0, 0, 32.56, 14594.4, -32310.15)" xlink:href="#Degradado_sin_nombre_151"></radialGradient><clipPath id="clip-path-5"><path class="cls-1" d="M13.45,66.7v2.87L20,65.1l.41-.47h.26L28.92,59a5.73,5.73,0,0,1-.38-1.33Z"></path></clipPath><radialGradient id="Degradado_sin_nombre_155" cx="446.95" cy="994.21" r="1.06" gradientTransform="matrix(-32.56, 0, 0, 32.56, 14600.11, -32311.32)" xlink:href="#Degradado_sin_nombre_151"></radialGradient><clipPath id="clip-path-6"><polygon class="cls-1" points="13.45 74.77 13.45 78.49 18.18 73.86 18.18 70.67 13.45 74.77"></polygon></clipPath><radialGradient id="Degradado_sin_nombre_156" cx="446.95" cy="994.21" r="1.06" gradientTransform="matrix(-32.56, 0, 0, 32.56, 14604.58, -32307.68)" xlink:href="#Degradado_sin_nombre_151"></radialGradient><clipPath id="clip-path-7"><polygon class="cls-1" points="13.45 70.48 13.45 73.71 18.18 69.83 18.18 67.13 18.38 66.91 13.45 70.48"></polygon></clipPath><radialGradient id="Degradado_sin_nombre_157" cx="446.95" cy="994.21" r="1.06" gradientTransform="matrix(-32.56, 0, 0, 32.56, 14602.36, -32308.31)" xlink:href="#Degradado_sin_nombre_151"></radialGradient><clipPath id="clip-path-8"><polygon class="cls-1" points="13.45 85.75 13.45 91.12 20.82 80.83 20.4 80.83 18.86 79.09 13.45 85.75"></polygon></clipPath><radialGradient id="Degradado_sin_nombre_158" cx="446.95" cy="994.21" r="1.06" gradientTransform="matrix(-32.56, 0, 0, 32.56, 14609.38, -32307.18)" xlink:href="#Degradado_sin_nombre_151"></radialGradient><clipPath id="clip-path-9"><path class="cls-1" d="M25.75,75v3.35l-2.22,2.51H21.8L13.45,93.17v2.54a6.54,6.54,0,0,0,.83,2.92L31.82,69a24.47,24.47,0,0,1,.82-3.3,5.3,5.3,0,0,1-.28-.47Z"></path></clipPath><radialGradient id="Degradado_sin_nombre_159" cx="446.95" cy="994.21" r="1.06" gradientTransform="matrix(-32.56, 0, 0, 32.56, 14608.56, -32310.19)" gradientUnits="userSpaceOnUse"><stop offset="0" stop-color="#fff"></stop><stop offset="1" stop-color="#cabc9f"></stop></radialGradient><clipPath id="clip-path-10"><polygon class="cls-1" points="13.45 79.76 13.45 84.16 18.32 78.48 18.18 78.32 18.18 74.88 13.45 79.76"></polygon></clipPath><radialGradient id="Degradado_sin_nombre_160" cx="446.95" cy="994.21" r="1.06" gradientTransform="matrix(-32.56, 0, 0, 32.56, 14606.81, -32307.18)" xlink:href="#Degradado_sin_nombre_151"></radialGradient><clipPath id="clip-path-11"><polygon class="cls-1" points="13.45 49.08 13.45 51.17 18.18 50.8 18.18 49 13.45 49.08"></polygon></clipPath><radialGradient id="Degradado_sin_nombre_161" cx="446.95" cy="994.21" r="1.06" gradientTransform="matrix(-32.56, 0, 0, 32.56, 14593.54, -32310.3)" xlink:href="#Degradado_sin_nombre_151"></radialGradient><clipPath id="clip-path-12"><polygon class="cls-1" points="13.45 54.44 13.45 56.61 18.18 55.4 18.18 53.52 13.45 54.44"></polygon></clipPath><radialGradient id="Degradado_sin_nombre_162" cx="446.95" cy="994.21" r="1.06" gradientTransform="matrix(-32.56, 0, 0, 32.56, 14595.79, -32309.76)" xlink:href="#Degradado_sin_nombre_151"></radialGradient><clipPath id="clip-path-13"><polygon class="cls-1" points="13.45 57.23 13.45 59.5 19.45 57.39 18.18 55.96 18.18 55.88 13.45 57.23"></polygon></clipPath><radialGradient id="Degradado_sin_nombre_163" cx="446.95" cy="994.21" r="1.06" gradientTransform="matrix(-32.56, 0, 0, 32.56, 14596.92, -32309.83)" xlink:href="#Degradado_sin_nombre_151"></radialGradient><clipPath id="clip-path-14"><path class="cls-1" d="M23.65,58.33l-.12.13h-.15l-9.93,4.83V65.9l15.06-8.48A12.67,12.67,0,0,1,28.39,56Z"></path></clipPath><radialGradient id="Degradado_sin_nombre_164" cx="446.95" cy="994.21" r="1.06" gradientTransform="matrix(-32.56, 0, 0, 32.56, 14598.94, -32311.49)" xlink:href="#Degradado_sin_nombre_151"></radialGradient><clipPath id="clip-path-15"><polygon class="cls-1" points="13.45 60.16 13.45 62.57 22.52 58.46 20.4 58.46 19.76 57.74 13.45 60.16"></polygon></clipPath><radialGradient id="Degradado_sin_nombre_165" cx="446.95" cy="994.21" r="1.06" gradientTransform="matrix(-32.56, 0, 0, 32.56, 14598.14, -32310.28)" xlink:href="#Degradado_sin_nombre_151"></radialGradient><clipPath id="clip-path-16"><polygon class="cls-1" points="69.33 78.32 69.11 78.57 74.05 84.27 74.05 79.89 69.33 75.07 69.33 78.32"></polygon></clipPath><radialGradient id="Degradado_sin_nombre_166" cx="446.95" cy="994.21" r="1.06" gradientTransform="matrix(-32.56, 0, 0, 32.56, 14612.68, -32332.36)" xlink:href="#Degradado_sin_nombre_151"></radialGradient><clipPath id="clip-path-17"><polygon class="cls-1" points="67.92 57.55 74.05 59.67 74.05 57.39 69.25 56.05 67.92 57.55"></polygon></clipPath><radialGradient id="Degradado_sin_nombre_167" cx="446.95" cy="994.21" r="1.06" gradientTransform="matrix(-32.56, 0, 0, 32.56, 14602.99, -32334.34)" xlink:href="#Degradado_sin_nombre_151"></radialGradient><clipPath id="clip-path-18"><polygon class="cls-1" points="69.33 55.59 74.05 56.78 74.05 54.6 69.33 53.72 69.33 55.59"></polygon></clipPath><radialGradient id="Degradado_sin_nombre_168" cx="446.95" cy="994.21" r="1.06" gradientTransform="matrix(-32.56, 0, 0, 32.56, 14601.7, -32335.02)" xlink:href="#Degradado_sin_nombre_151"></radialGradient><clipPath id="clip-path-19"><polygon class="cls-1" points="69.33 53.26 74.05 54.02 74.05 51.9 69.33 51.44 69.33 53.26"></polygon></clipPath><radialGradient id="Degradado_sin_nombre_169" cx="446.95" cy="994.21" r="1.06" gradientTransform="matrix(-32.56, 0, 0, 32.56, 14600.34, -32335.39)" xlink:href="#Degradado_sin_nombre_151"></radialGradient><clipPath id="clip-path-20"><polygon class="cls-1" points="69.33 51 74.05 51.33 74.05 49.25 69.33 49.2 69.33 51"></polygon></clipPath><radialGradient id="Degradado_sin_nombre_170" cx="446.95" cy="994.21" r="1.06" gradientTransform="matrix(-32.56, 0, 0, 32.56, 14599.51, -32335.53)" xlink:href="#Degradado_sin_nombre_151"></radialGradient><clipPath id="clip-path-21"><polygon class="cls-1" points="67.11 58.46 64.47 58.46 74.05 62.74 74.05 60.32 67.6 57.9 67.11 58.46"></polygon></clipPath><radialGradient id="Degradado_sin_nombre_171" cx="446.95" cy="994.21" r="1.06" gradientTransform="matrix(-32.56, 0, 0, 32.56, 14603.73, -32333.38)" xlink:href="#Degradado_sin_nombre_151"></radialGradient><clipPath id="clip-path-22"><path class="cls-1" d="M57.91,73.09,73.22,98.62h0a6.41,6.41,0,0,0,.83-2.92V93.22L65.57,80.83H64l-2.22-2.51V75.25l-4-5.79a30,30,0,0,1,.13,3.63"></path></clipPath><radialGradient id="Degradado_sin_nombre_172" cx="446.95" cy="994.21" r="1.06" gradientTransform="matrix(-32.56, 0, 0, 32.56, 14614.18, -32329.27)" xlink:href="#Degradado_sin_nombre_151"></radialGradient><clipPath id="clip-path-23"><polygon class="cls-1" points="13.45 48.52 18.18 48.57 18.18 46.77 13.45 46.43 13.45 48.52"></polygon></clipPath><radialGradient id="Degradado_sin_nombre_173" cx="446.95" cy="994.21" r="1.06" gradientTransform="matrix(-32.56, 0, 0, 32.56, 14592.35, -32310.59)" xlink:href="#Degradado_sin_nombre_151"></radialGradient><clipPath id="clip-path-24"><path class="cls-1" d="M73.93,38.3,52.52,45.85,72.23,38.3h-5l-15,6.79,14-6.79H62.62L51.86,44.37,62,38.3H59.29l-7.86,5.38,7.42-5.38H56.71L51,43,56.4,38.3H54.62l-4.21,4.13,4-4.13H52.88l-3.05,3.57,2.89-3.57H51.38l-2.19,3.07,2.07-3.07h-1.2l-1.54,2.62L50,38.3h-1.1L47.8,40.54l1-2.24h-1l-.72,1.91.66-1.91h-1L46.29,40l.42-1.66h-.93l-.27,1.47.23-1.47h-.9l-.14,1.35.1-1.35h-.89v1.31l0-1.31H43l.1,1.33L43,38.3h-.9l.23,1.42L42,38.3h-.92l.4,1.58L41,38.3h-1l.64,1.82L40,38.3H39l1,2.11-1-2.11H37.85l1.39,2.48L37.76,38.3H36.57l2,2.9-2.1-2.9H35.13l2.77,3.38L35,38.3H33.46l3.84,3.92-4-3.92H31.48l5.26,4.51L31.19,38.3H29.06l7.18,5.14-7.6-5.14H26l9.83,5.82L25.33,38.3H21.78l13.63,6.53L20.79,38.3h-5l12.9,4.85.17,0a1.23,1.23,0,0,1,1.12.52l5.14,1.93-5-1.74a.14.14,0,0,1,0,.06l.23,1.18,4.55,1.27-4.52-1.13.23,1.15,4.1.77-4.08-.65.21,1.08,3.75.37-3.72-.27.2,1,3.48,0-3.46,0,.2,1,3.28-.25-3.27.34.2,1,3.16-.52L31.45,51l.19,1,3.11-.8L31.66,52l.19,1L35,51.92l-3.11,1.19.14.7a3.11,3.11,0,0,1,.2.25l3.07-1.39-3,1.47a3.45,3.45,0,0,1,.43.92l3-1.66-2.93,1.75a6.16,6.16,0,0,1,.18,1.1l3.17-2.17-3.16,2.29a7.37,7.37,0,0,1,0,1.22l.07.11,3.61-3L33,57.81a2.44,2.44,0,0,0,.75.8l1.48-1.45A17.48,17.48,0,0,1,36.71,55a12.16,12.16,0,0,1,1.35-1.44l.1-.07L39,53l.86-.49a2,2,0,0,1-.22-1.38,2.13,2.13,0,0,1,.34-1,.78.78,0,0,0,.14-.5,7.49,7.49,0,0,1,1-3.83l-.52-1.55a.64.64,0,0,1,1-.71h0a.58.58,0,0,0,.26.08.34.34,0,0,0,.08-.16.8.8,0,0,1,.08-.16,1,1,0,0,1,.87-.87,4.4,4.4,0,0,1,.33-.61.63.63,0,0,1,.55-.31.66.66,0,0,1,.55.31,5.85,5.85,0,0,1,.33.61,1,1,0,0,1,.86.85.63.63,0,0,1,.1.43s0,0,.07,0a.54.54,0,0,0,.43-.07.64.64,0,0,1,1,.75l-.48,1.27a4.62,4.62,0,0,1,1.07,3,5.68,5.68,0,0,0,.43,1,3.42,3.42,0,0,1,.41,1A2.19,2.19,0,0,1,48,52.53a10.45,10.45,0,0,1,1.67.63l.1.06,1.44,1.1.06.06.55.53a9.32,9.32,0,0,1,2.09,2.62l9.49,7.71.54-.61h1.7L51.27,54.32,66.52,64.63h.59l.87,1,6.07,4.11V66.86L51.71,53.65,74.05,66.06V63.45L52.1,52.93l11.54,5.16L61.75,56V55.7l-9.33-3.51,9.33,3.23V54l-9.08-2.54,9.08,2.28V52.3l-8.89-1.66,8.89,1.41V50.7L53,49.83l8.77.63V49.12L53,49l8.72-.15V47.55L53,48.22l8.74-.91V46l-8.84,1.46,8.84-1.7v-.94l.53-.59-9.53,2.44,9.85-2.81L64,42.27h3.14l.17.2,6.77-1.93V38.3Z"></path></clipPath><radialGradient id="Degradado_sin_nombre_174" cx="446.95" cy="994.21" r="1.06" gradientTransform="matrix(-32.56, 0, 0, 32.56, 14598.33, -32323.04)" xlink:href="#Degradado_sin_nombre_151"></radialGradient><clipPath id="clip-path-25"><polygon class="cls-1" points="67.11 80.83 66.54 80.83 74.05 91.19 74.05 85.84 68.57 79.17 67.11 80.83"></polygon></clipPath><radialGradient id="Degradado_sin_nombre_175" cx="446.95" cy="994.21" r="1.06" gradientTransform="matrix(-32.56, 0, 0, 32.56, 14615.14, -32331.14)" xlink:href="#Degradado_sin_nombre_151"></radialGradient><clipPath id="clip-path-26"><polygon class="cls-1" points="69.33 70.02 74.05 73.86 74.05 70.63 69.33 67.25 69.33 70.02"></polygon></clipPath><radialGradient id="Degradado_sin_nombre_176" cx="446.95" cy="994.21" r="1.06" gradientTransform="matrix(-32.56, 0, 0, 32.56, 14608.69, -32333.34)" xlink:href="#Degradado_sin_nombre_151"></radialGradient><clipPath id="clip-path-27"><polygon class="cls-1" points="69.33 74.04 74.05 78.62 74.05 74.91 69.33 70.86 69.33 74.04"></polygon></clipPath><radialGradient id="Degradado_sin_nombre_177" cx="446.95" cy="994.21" r="1.06" gradientTransform="matrix(-32.56, 0, 0, 32.56, 14610.53, -32332.91)" xlink:href="#Degradado_sin_nombre_151"></radialGradient><clipPath id="clip-path-28"><path class="cls-1" d="M25.75,70.59v3.35l6.46-9-.72-1.4Z"></path></clipPath><radialGradient id="Degradado_sin_nombre_178" cx="446.95" cy="994.21" r="1.06" gradientTransform="matrix(-32.56, 0, 0, 32.56, 14603.16, -32314.33)" xlink:href="#Degradado_sin_nombre_151"></radialGradient><clipPath id="clip-path-29"><polygon class="cls-1" points="25.75 47.07 28.44 47.33 28.24 46.11 25.75 45.71 25.75 47.07"></polygon></clipPath><radialGradient id="Degradado_sin_nombre_179" cx="446.95" cy="994.21" r="1.06" gradientTransform="matrix(-32.56, 0, 0, 32.56, 14592.66, -32315.99)" xlink:href="#Degradado_sin_nombre_151"></radialGradient><clipPath id="clip-path-30"><path class="cls-1" d="M25.75,55.45V56l-1.53,1.73,4.17-1.89a2.73,2.73,0,0,1,.72-1.63Z"></path></clipPath><radialGradient id="Degradado_sin_nombre_180" cx="446.95" cy="994.21" r="1.06" gradientTransform="matrix(-32.56, 0, 0, 32.56, 14597.36, -32314.56)" xlink:href="#Degradado_sin_nombre_151"></radialGradient><clipPath id="clip-path-31"><polygon class="cls-1" points="25.75 44.77 25.75 45.47 28.2 45.92 27.98 44.63 24.95 43.87 25.75 44.77"></polygon></clipPath><radialGradient id="Degradado_sin_nombre_181" cx="446.95" cy="994.21" r="1.06" gradientTransform="matrix(-32.56, 0, 0, 32.56, 14592.2, -32315.79)" xlink:href="#Degradado_sin_nombre_151"></radialGradient><clipPath id="clip-path-32"><path class="cls-1" d="M24.23,65.42l1.19,1.34,5.16-5.05-.64-1.24Z"></path></clipPath><radialGradient id="Degradado_sin_nombre_182" cx="446.95" cy="994.21" r="1.06" gradientTransform="matrix(-32.56, 0, 0, 32.56, 14600.7, -32314.16)" xlink:href="#Degradado_sin_nombre_151"></radialGradient><clipPath id="clip-path-33"><path class="cls-1" d="M25.72,67.09l0,0v2.68l5.61-6.55,0-.06c-.21-.43-.43-.86-.63-1.26Z"></path></clipPath><radialGradient id="Degradado_sin_nombre_183" cx="446.95" cy="994.21" r="1.06" gradientTransform="matrix(-32.56, 0, 0, 32.56, 14601.98, -32314.37)" xlink:href="#Degradado_sin_nombre_151"></radialGradient><clipPath id="clip-path-34"><polygon class="cls-1" points="25.75 50.45 25.75 51.81 29.11 51.26 28.92 50.13 25.75 50.45"></polygon></clipPath><radialGradient id="Degradado_sin_nombre_184" cx="446.95" cy="994.21" r="1.06" gradientTransform="matrix(-32.56, 0, 0, 32.56, 14595.25, -32315.42)" xlink:href="#Degradado_sin_nombre_151"></radialGradient><clipPath id="clip-path-35"><polygon class="cls-1" points="25.75 52.06 25.75 53.45 29.32 52.54 29.13 51.41 25.75 52.06"></polygon></clipPath><radialGradient id="Degradado_sin_nombre_185" cx="446.95" cy="994.21" r="1.06" gradientTransform="matrix(-32.56, 0, 0, 32.56, 14595.83, -32315.35)" xlink:href="#Degradado_sin_nombre_151"></radialGradient><clipPath id="clip-path-36"><polygon class="cls-1" points="25.75 48.65 28.67 48.68 28.47 47.5 25.75 47.31 25.75 48.65"></polygon></clipPath><radialGradient id="Degradado_sin_nombre_186" cx="446.95" cy="994.21" r="1.06" gradientTransform="matrix(-32.56, 0, 0, 32.56, 14593.79, -32315.68)" xlink:href="#Degradado_sin_nombre_151"></radialGradient><clipPath id="clip-path-37"><path class="cls-1" d="M25.75,53.71v1.46l3.62-1.27a1.1,1.1,0,0,1,.16-.15l-.18-1.06Z"></path></clipPath><radialGradient id="Degradado_sin_nombre_187" cx="446.95" cy="994.21" r="1.06" gradientTransform="matrix(-32.56, 0, 0, 32.56, 14596.27, -32315.35)" xlink:href="#Degradado_sin_nombre_151"></radialGradient><clipPath id="clip-path-38"><path class="cls-1" d="M21.52,64.63h2l.41.46,5.89-4.83h0l-.42-.53A1.81,1.81,0,0,1,29,59.2Z"></path></clipPath><radialGradient id="Degradado_sin_nombre_188" cx="446.95" cy="994.21" r="1.06" gradientTransform="matrix(-32.56, 0, 0, 32.56, 14599.83, -32313.54)" xlink:href="#Degradado_sin_nombre_151"></radialGradient><clipPath id="clip-path-39"><polygon class="cls-1" points="25.75 48.88 25.75 50.22 28.89 49.98 28.7 48.83 25.75 48.88"></polygon></clipPath><radialGradient id="Degradado_sin_nombre_189" cx="446.95" cy="994.21" r="1.06" gradientTransform="matrix(-32.56, 0, 0, 32.56, 14594.21, -32315.69)" xlink:href="#Degradado_sin_nombre_151"></radialGradient><clipPath id="clip-path-40"><path class="cls-1" d="M17.24,96,24,89.91l7.18-15a38.29,38.29,0,0,1,.41-4.85Z"></path></clipPath><radialGradient id="Degradado_sin_nombre_190" cx="446.95" cy="994.21" r="1.06" gradientTransform="matrix(-32.56, 0, 0, 32.56, 14609.16, -32310.72)" xlink:href="#Degradado_sin_nombre_151"></radialGradient><clipPath id="clip-path-41"><path class="cls-1" d="M33.86,58.68a3.86,3.86,0,0,1,.68.57c.18-.27-.12-.66,0-.92s.33-.6.51-.91Z"></path></clipPath><radialGradient id="Degradado_sin_nombre_191" cx="446.95" cy="994.21" r="1.06" gradientTransform="matrix(-32.56, 0, 0, 32.56, 14598.92, -32317.98)" xlink:href="#Degradado_sin_nombre_151"></radialGradient><clipPath id="clip-path-42"><path class="cls-1" d="M57.68,68.6l4.07,5.62V70.87L56.94,65a28.42,28.42,0,0,1,.74,3.59"></path></clipPath><radialGradient id="Degradado_sin_nombre_192" cx="446.95" cy="994.21" r="1.06" gradientTransform="matrix(-32.56, 0, 0, 32.56, 14606.87, -32327.9)" xlink:href="#Degradado_sin_nombre_151"></radialGradient><clipPath id="clip-path-43"><polygon class="cls-1" points="13.45 45.86 18.18 46.33 18.18 44.77 18.39 44.54 13.45 43.75 13.45 45.86"></polygon></clipPath><radialGradient id="Degradado_sin_nombre_193" cx="446.95" cy="994.21" r="1.06" gradientTransform="matrix(-32.56, 0, 0, 32.56, 14591.31, -32310.88)" xlink:href="#Degradado_sin_nombre_151"></radialGradient><clipPath id="clip-path-44"><path class="cls-1" d="M56.74,64.31l5,5.77V67.33L55.57,61c.48,1.17.86,2.27,1.17,3.29"></path></clipPath><radialGradient id="Degradado_sin_nombre_194" cx="446.95" cy="994.21" r="1.06" gradientTransform="matrix(-32.56, 0, 0, 32.56, 14605.02, -32328.01)" xlink:href="#Degradado_sin_nombre_151"></radialGradient><clipPath id="clip-path-45"><path class="cls-1" d="M13.45,38.3v2.07l6.92,1.93,0,0h3.13l1.09,1.22,3.33.93,0-.16a.75.75,0,0,1,0-.15,1.09,1.09,0,0,1,.48-.85l-14.35-5Z"></path></clipPath><radialGradient id="Degradado_sin_nombre_195" cx="446.95" cy="994.21" r="1.06" gradientTransform="matrix(-32.56, 0, 0, 32.56, 14590.05, -32313.59)" xlink:href="#Degradado_sin_nombre_151"></radialGradient><clipPath id="clip-path-46"><polygon class="cls-1" points="13.45 43.16 18.73 44.15 20.07 42.64 13.45 40.99 13.45 43.16"></polygon></clipPath><radialGradient id="Degradado_sin_nombre_196" cx="446.95" cy="994.21" r="1.06" gradientTransform="matrix(-32.56, 0, 0, 32.56, 14590.01, -32311.65)" xlink:href="#Degradado_sin_nombre_151"></radialGradient><clipPath id="clip-path-47"><path class="cls-1" d="M25.81,88.33l4.61-4.11,1.06-2.83a17.44,17.44,0,0,0-.09-1.79q-.16-1.75-.18-3.36Z"></path></clipPath><radialGradient id="Degradado_sin_nombre_197" cx="446.95" cy="994.21" r="1.06" gradientTransform="matrix(-32.56, 0, 0, 32.56, 14609.25, -32312.72)" xlink:href="#Degradado_sin_nombre_151"></radialGradient><clipPath id="clip-path-48"><path class="cls-1" d="M55,59.7h0c.13.28.24.56.36.83L62,66.91l1.19-1.35L54.08,57.8c.27.5.56,1.11.92,1.9"></path></clipPath><radialGradient id="Degradado_sin_nombre_198" cx="446.95" cy="994.21" r="1.06" gradientTransform="matrix(-32.56, 0, 0, 32.56, 14603.62, -32328.31)" xlink:href="#Degradado_sin_nombre_151"></radialGradient><clipPath id="clip-path-49"><path class="cls-1" d="M56.32,82.56,56.89,84l4.64,4.15-4.15-9.14a23.12,23.12,0,0,1-1.06,3.51"></path></clipPath><radialGradient id="Degradado_sin_nombre_199" cx="446.95" cy="994.21" r="1.06" gradientTransform="matrix(-32.56, 0, 0, 32.56, 14613.18, -32326.19)" xlink:href="#Degradado_sin_nombre_151"></radialGradient><clipPath id="clip-path-50"><path class="cls-1" d="M57.9,74.23A23.55,23.55,0,0,1,57.58,78l5.73,11.79,6.9,6.15L57.9,74.09v.14"></path></clipPath><radialGradient id="Degradado_sin_nombre_200" cx="446.95" cy="994.21" r="1.06" gradientTransform="matrix(-32.56, 0, 0, 32.56, 14614.33, -32328.29)" xlink:href="#Degradado_sin_nombre_151"></radialGradient></defs><title>1</title><path class="cls-2" d="M100,53.27h0A19,19,0,0,0,94.25,52c-2-.17-3-.79-3-1.9v-.71a3.31,3.31,0,0,1,.51-2.18,2.72,2.72,0,0,1,2-.55h1.46a3,3,0,0,1,2,.49,2.61,2.61,0,0,1,.53,1.9v.22a.82.82,0,0,0,.91.92h3.19a.82.82,0,0,0,.91-.92v-.71a6.19,6.19,0,0,0-1.69-4.62,6.44,6.44,0,0,0-4.7-1.65H92.62A6.39,6.39,0,0,0,88,43.93a6.19,6.19,0,0,0-1.69,4.62v1.31a7.56,7.56,0,0,0,.9,3.87,4.54,4.54,0,0,0,2.26,2,17.63,17.63,0,0,0,2.85.83,23.53,23.53,0,0,0,2.84.44,4.58,4.58,0,0,1,2.14.67,1.76,1.76,0,0,1,.82,1.56v.45a2.06,2.06,0,0,1-2.5,2.54H93.82a3,3,0,0,1-2-.49,2.53,2.53,0,0,1-.53-1.86v-.3a.81.81,0,0,0-.91-.91H87.22a.81.81,0,0,0-.91.91v.75A6.21,6.21,0,0,0,88,65a6.43,6.43,0,0,0,4.66,1.64h4.09A6.43,6.43,0,0,0,101.41,65a6.21,6.21,0,0,0,1.69-4.63V59.09a7.22,7.22,0,0,0-.9-3.76A5,5,0,0,0,100,53.27m37.19-9.36a6.36,6.36,0,0,0-4.63-1.63h-9.15a.81.81,0,0,0-.91.91V65.72a.81.81,0,0,0,.91.91h3.19a.81.81,0,0,0,.91-.91V58.64c0-.15,0-.29.33-.29h4.72a6.34,6.34,0,0,0,4.63-1.63,6.23,6.23,0,0,0,1.65-4.61v-3.6a6.22,6.22,0,0,0-1.65-4.6m-3.37,8a2.24,2.24,0,0,1-.45,1.58,2.2,2.2,0,0,1-1.6.47h-4c-.21,0-.29-.08-.29-.29V46.94c0-.21.08-.29.29-.29h4a2.2,2.2,0,0,1,1.6.47,2.32,2.32,0,0,1,.45,1.62ZM119.61,62.22H111.7c-.28,0-.32-.14-.32-.28V43.19a.81.81,0,0,0-.91-.91h-3.19a.81.81,0,0,0-.91.91V65.72a.81.81,0,0,0,.91.91h12.33a.8.8,0,0,0,.88-.91V63.17c0-.78-.48-1-.88-1"></path><rect class="cls-2" x="73.27" y="21.66" width="14.98" height="14.98"></rect><rect class="cls-2" x="87.97" y="13.59" width="8.36" height="8.36"></rect><rect class="cls-2" x="87.97" width="8.36" height="8.36"></rect><rect class="cls-2" x="82.34" y="7.96" width="5.92" height="5.92"></rect><rect class="cls-2" x="69.88" y="19.27" width="3.39" height="3.39"></rect><path class="cls-2" d="M82.6,34.7l-4.15-4.91a1.06,1.06,0,0,0-.74-.35,1,1,0,0,0-.76.31s-2.61,2.59-8.35,2.59a14.37,14.37,0,0,1-5.24-.67A32.51,32.51,0,0,0,56,30.32a10.1,10.1,0,0,0-3,.11,1,1,0,0,0-.81,1v.31a2.93,2.93,0,0,0-1.66,1.39l-5.25-1a.9.9,0,0,1-.07-.31s1.08-.22,1.08-.51-1-.36-1-.36c.15-.5,1.44-2.08,2.66-1.79s1.15,2.15,1.15,2.15c2.87-.36,2.73-4.88-.86-4.59a4.3,4.3,0,0,0-3.76,3.5c.43-1.84,1.54-3.6,1.6-4.58.08-1.15-2.3-5-2.3-5s-2.37,3.81-2.3,5c.06,1,1.17,2.74,1.6,4.58a4.29,4.29,0,0,0-3.75-3.5c-3.6-.29-3.74,4.23-.87,4.59,0,0-.07-1.87,1.15-2.15s2.52,1.29,2.66,1.79c0,0-1,.07-1,.36s1.08.51,1.08.51a.9.9,0,0,1-.07.31l-5.25,1a2.93,2.93,0,0,0-1.65-1.39v-.31a1,1,0,0,0-.81-1,10.18,10.18,0,0,0-3-.11,32.51,32.51,0,0,0-7.38,1.35,14.27,14.27,0,0,1-5.23.67c-5.75,0-8.33-2.57-8.35-2.59a1,1,0,0,0-.76-.31,1,1,0,0,0-.74.35L4.91,34.7a1,1,0,0,0,.44,1.61c.19.11,2.81,2,1.47,15.4-1.2,11.93-.44,12.17.45,12.46a1.13,1.13,0,0,0,.77,0V93.8l-.48,0a.94.94,0,0,0-.77.32,1,1,0,0,0-.27.78,20.81,20.81,0,0,0,6.26,12.21,20,20,0,0,1,2.28,2.44,1,1,0,0,0-.57,1.62c.23.28,5.69,6.91,16.52,6.43,4.41-.19,5.83.25,6.25.46l-.15.15a1,1,0,0,0,.61,1.81H49.78a1,1,0,0,0,.62-1.81.71.71,0,0,1-.15-.15c.42-.21,1.83-.65,6.25-.46,10.83.48,16.29-6.15,16.51-6.43a1,1,0,0,0,.07-1.18,1,1,0,0,0-.63-.44,19.15,19.15,0,0,1,2.28-2.44A21,21,0,0,0,81,94.88a1,1,0,0,0-.27-.78,1,1,0,0,0-.78-.32l-.48,0V64.14a1.13,1.13,0,0,0,.77,0c.89-.29,1.66-.53.46-12.46C79.34,38.32,82,36.42,82.15,36.31a1,1,0,0,0,.64-.64,1.06,1.06,0,0,0-.19-1"></path><path class="cls-3" d="M75.74,36.61h-64v59.1c0,7.51,14.35,18.1,32,18.1s32-10.59,32-18.1ZM74.05,51.9V95.71a6.52,6.52,0,0,1-.82,2.92c-1.3,2.5-4.06,5.22-7.76,7.51a42.43,42.43,0,0,1-43.44,0c-3.69-2.29-6.45-5-7.75-7.51h0a6.54,6.54,0,0,1-.83-2.92V38.3h60.6V51.9Z"></path><polygon class="cls-3" points="69.33 48.76 74.05 48.68 74.05 46.6 69.33 46.96 69.33 48.76"></polygon><g class="cls-4"><rect class="cls-5" x="69.09" y="45.65" width="5.19" height="4.06" transform="translate(-13.8 37.45) rotate(-26.81)"></rect></g><g class="cls-6"><rect class="cls-7" x="67.22" y="39.87" width="7.2" height="5.74" transform="translate(-11.66 36.53) rotate(-26.81)"></rect></g><g class="cls-8"><rect class="cls-9" x="68.94" y="42.98" width="5.44" height="4.48" transform="translate(-12.69 37.18) rotate(-26.81)"></rect></g><g class="cls-10"><rect class="cls-11" x="13.12" y="50.32" width="5.39" height="4.46" transform="translate(-22 12.78) rotate(-26.81)"></rect></g><g class="cls-12"><rect class="cls-13" x="11.6" y="54.81" width="19.18" height="17.61" transform="translate(-26.41 16.39) rotate(-26.81)"></rect></g><g class="cls-14"><rect class="cls-15" x="11.94" y="70.03" width="7.74" height="9.11" transform="translate(-31.93 15.15) rotate(-26.81)"></rect></g><g class="cls-16"><rect class="cls-17" x="12.18" y="66.16" width="7.47" height="8.29" transform="translate(-30 14.73) rotate(-26.81)"></rect></g><g class="cls-18"><rect class="cls-19" x="11.14" y="78.07" width="12.01" height="14.07" transform="translate(-36.54 16.87) rotate(-26.81)"></rect></g><g class="cls-20"><rect class="cls-21" x="6.95" y="62.67" width="32.2" height="38.49" transform="translate(-34.46 19.2) rotate(-26.81)"></rect></g><g class="cls-22"><rect class="cls-23" x="11.62" y="74.28" width="8.53" height="10.48" transform="translate(-34.15 15.71) rotate(-26.81)"></rect></g><g class="cls-24"><rect class="cls-25" x="13.22" y="48.05" width="5.19" height="4.06" transform="translate(-20.89 12.51) rotate(-26.81)"></rect></g><g class="cls-26"><rect class="cls-27" x="13.01" y="52.62" width="5.61" height="4.89" transform="translate(-23.13 13.05) rotate(-26.81)"></rect></g><g class="cls-28"><rect class="cls-29" x="12.96" y="54.72" width="6.99" height="5.94" transform="translate(-24.25 13.62) rotate(-26.81)"></rect></g><g class="cls-30"><rect class="cls-31" x="12.04" y="53.16" width="17.89" height="15.6" transform="translate(-25.24 16.01) rotate(-26.81)"></rect></g><g class="cls-32"><rect class="cls-33" x="12.85" y="55.96" width="10.27" height="8.4" transform="translate(-25.2 14.58) rotate(-26.81)"></rect></g><g class="cls-34"><rect class="cls-35" x="67.3" y="74.45" width="8.56" height="10.44" transform="translate(-28.23 40.84) rotate(-26.81)"></rect></g><g class="cls-36"><rect class="cls-37" x="67.43" y="54.86" width="7.11" height="5.99" transform="translate(-18.46 38.23) rotate(-26.81)"></rect></g><g class="cls-38"><rect class="cls-39" x="68.89" y="52.82" width="5.6" height="4.86" transform="translate(-17.21 38.27) rotate(-26.81)"></rect></g><g class="cls-40"><rect class="cls-41" x="69" y="50.51" width="5.38" height="4.43" transform="translate(-16.07 37.99) rotate(-26.81)"></rect></g><g class="cls-42"><rect class="cls-43" x="69.1" y="48.25" width="5.18" height="4.04" transform="translate(-14.96 37.73) rotate(-26.81)"></rect></g><g class="cls-44"><rect class="cls-45" x="63.9" y="56" width="10.73" height="8.64" transform="translate(-19.76 37.72) rotate(-26.81)"></rect></g><g class="cls-46"><rect class="cls-47" x="52.08" y="67.35" width="27.68" height="33.37" transform="translate(-30.82 38.76) rotate(-26.81)"></rect></g><g class="cls-48"><rect class="cls-49" x="13.23" y="45.48" width="5.18" height="4.04" transform="translate(-19.72 12.24) rotate(-26.81)"></rect></g><g class="cls-50"><rect class="cls-51" x="11.79" y="26.85" width="66.21" height="54.34" transform="translate(-19.53 26.05) rotate(-26.81)"></rect></g><g class="cls-52"><rect class="cls-53" x="64.23" y="78.12" width="12.12" height="14.11" transform="translate(-30.86 40.85) rotate(-26.81)"></rect></g><g class="cls-54"><rect class="cls-55" x="68.09" y="66.54" width="7.2" height="8.03" transform="translate(-24.11 39.91) rotate(-26.81)"></rect></g><g class="cls-56"><rect class="cls-57" x="67.83" y="70.21" width="7.72" height="9.05" transform="translate(-26 40.36) rotate(-26.81)"></rect></g><g class="cls-58"><rect class="cls-59" x="23.75" y="62.62" width="10.46" height="12.21" transform="translate(-27.88 20.46) rotate(-26.81)"></rect></g><g class="cls-60"><rect class="cls-61" x="25.53" y="45.19" width="3.13" height="2.66" transform="translate(-18.07 17.22) rotate(-26.81)"></rect></g><g class="cls-62"><rect class="cls-63" x="23.69" y="53.25" width="5.96" height="5.35" transform="translate(-22.36 18.04) rotate(-26.81)"></rect></g><g class="cls-64"><rect class="cls-65" x="24.66" y="43.25" width="3.83" height="3.3" transform="translate(-17.39 16.81) rotate(-26.81)"></rect></g><g class="cls-66"><rect class="cls-67" x="23.15" y="59.38" width="8.5" height="8.48" transform="translate(-25.74 19.2) rotate(-26.81)"></rect></g><g class="cls-68"><rect class="cls-69" x="24.25" y="61.09" width="8.59" height="9.57" transform="translate(-26.64 19.95) rotate(-26.81)"></rect></g><g class="cls-70"><rect class="cls-71" x="25.55" y="49.46" width="3.75" height="3.02" transform="translate(-20.04 17.85) rotate(-26.81)"></rect></g><g class="cls-72"><rect class="cls-73" x="25.48" y="50.71" width="4.11" height="3.44" transform="translate(-20.68 18.05) rotate(-26.81)"></rect></g><g class="cls-74"><rect class="cls-75" x="25.6" y="46.72" width="3.22" height="2.54" transform="translate(-18.72 17.43) rotate(-26.81)"></rect></g><g class="cls-76"><rect class="cls-77" x="25.4" y="51.97" width="4.49" height="3.92" transform="translate(-21.35 18.26) rotate(-26.81)"></rect></g><g class="cls-78"><rect class="cls-79" x="20.63" y="57.64" width="10.08" height="9.01" transform="translate(-25.27 18.25) rotate(-26.81)"></rect></g><g class="cls-80"><rect class="cls-81" x="25.61" y="48.2" width="3.43" height="2.65" transform="translate(-19.4 17.64) rotate(-26.81)"></rect></g><g class="cls-82"><rect class="cls-83" x="12.17" y="68.23" width="24.53" height="29.61" transform="translate(-34.82 19.94) rotate(-26.81)"></rect></g><g class="cls-84"><rect class="cls-85" x="33.51" y="57.24" width="1.92" height="2.19" transform="translate(-22.6 21.81) rotate(-26.81)"></rect></g><g class="cls-86"><rect class="cls-87" x="55.12" y="64.42" width="8.45" height="10.39" transform="translate(-25.02 34.24) rotate(-26.81)"></rect></g><g class="cls-88"><rect class="cls-89" x="13.14" y="42.78" width="5.57" height="4.53" transform="translate(-18.6 12.02) rotate(-26.81)"></rect></g><g class="cls-90"><rect class="cls-91" x="53.85" y="60.11" width="9.61" height="10.88" transform="translate(-23.26 33.5) rotate(-26.81)"></rect></g><g class="cls-92"><rect class="cls-93" x="12.88" y="35.26" width="16.1" height="12.2" transform="translate(-16.4 13.88) rotate(-26.81)"></rect></g><g class="cls-94"><rect class="cls-95" x="13.1" y="39.67" width="7.33" height="5.81" transform="translate(-17.4 12.13) rotate(-26.81)"></rect></g><g class="cls-96"><rect class="cls-97" x="23.39" y="75.61" width="10.51" height="13.35" transform="translate(-34.03 21.76) rotate(-26.81)"></rect></g><g class="cls-98"><rect class="cls-99" x="52.52" y="56.25" width="12.19" height="12.21" transform="translate(-21.82 33.13) rotate(-26.81)"></rect></g><g class="cls-100"><rect class="cls-101" x="54.54" y="78.36" width="8.77" height="10.51" transform="translate(-31.38 35.56) rotate(-26.81)"></rect></g><g class="cls-102"><rect class="cls-103" x="53.33" y="72.41" width="21.12" height="25.19" transform="translate(-31.47 37.95) rotate(-26.81)"></rect></g><polygon class="cls-3" points="43.91 38.3 43.88 38.3 43.9 39.61 43.91 38.3"></polygon><polygon class="cls-3" points="42.99 38.3 42.95 38.3 43.09 39.63 42.99 38.3"></polygon><polygon class="cls-3" points="42.05 38.3 42.01 38.3 42.28 39.72 42.05 38.3"></polygon><polygon class="cls-3" points="41.09 38.3 41.04 38.3 41.49 39.88 41.09 38.3"></polygon><polygon class="cls-3" points="40.08 38.3 40.02 38.3 40.72 40.12 40.08 38.3"></polygon><polygon class="cls-3" points="39.01 38.3 38.94 38.3 39.96 40.41 39.01 38.3"></polygon><polygon class="cls-3" points="37.85 38.3 37.76 38.3 39.24 40.78 37.85 38.3"></polygon><polygon class="cls-3" points="36.57 38.3 36.45 38.3 38.55 41.2 36.57 38.3"></polygon><polygon class="cls-3" points="35.13 38.3 34.97 38.3 37.9 41.68 35.13 38.3"></polygon><polygon class="cls-3" points="33.46 38.3 33.25 38.3 37.3 42.22 33.46 38.3"></polygon><polygon class="cls-3" points="31.48 38.3 31.19 38.3 36.74 42.81 31.48 38.3"></polygon><polygon class="cls-3" points="29.06 38.3 28.64 38.3 36.24 43.44 29.06 38.3"></polygon><polygon class="cls-3" points="25.96 38.3 25.33 38.3 35.79 44.12 25.96 38.3"></polygon><polygon class="cls-3" points="21.79 38.3 20.79 38.3 35.41 44.83 21.79 38.3"></polygon><path class="cls-3" d="M30,43.83l5,1.74-5.14-1.93h0a.66.66,0,0,1,.09.19"></path><path class="cls-3" d="M28.65,43.15,15.75,38.3h-1.7l14.35,5,.25-.11"></path><polygon class="cls-3" points="20.37 42.3 13.45 40.37 13.45 40.99 20.07 42.64 20.37 42.3"></polygon><polygon class="cls-3" points="34.83 46.34 30.28 45.07 30.31 45.21 34.83 46.34"></polygon><polygon class="cls-3" points="27.98 44.63 27.95 44.42 24.62 43.49 24.95 43.87 27.98 44.63"></polygon><polygon class="cls-3" points="34.64 47.13 30.54 46.36 30.56 46.48 34.64 47.13"></polygon><polygon class="cls-3" points="18.73 44.15 13.45 43.16 13.45 43.75 18.39 44.54 18.73 44.15"></polygon><polygon class="cls-3" points="25.75 45.71 28.24 46.11 28.2 45.92 25.75 45.47 25.75 45.71"></polygon><polygon class="cls-3" points="25.75 47.31 28.47 47.5 28.44 47.33 25.75 47.07 25.75 47.31"></polygon><polygon class="cls-3" points="18.18 46.33 13.45 45.86 13.45 46.43 18.18 46.77 18.18 46.33"></polygon><polygon class="cls-3" points="34.52 47.93 30.78 47.56 30.8 47.66 34.52 47.93"></polygon><polygon class="cls-3" points="25.75 48.88 28.7 48.83 28.67 48.68 25.75 48.65 25.75 48.88"></polygon><polygon class="cls-3" points="18.18 48.57 13.45 48.52 13.45 49.08 18.18 49 18.18 48.57"></polygon><polygon class="cls-3" points="34.48 48.74 31 48.7 31.02 48.79 34.48 48.74"></polygon><polygon class="cls-3" points="18.18 50.8 13.45 51.17 13.45 51.73 18.18 51.24 18.18 50.8"></polygon><polygon class="cls-3" points="34.5 49.55 31.22 49.8 31.23 49.89 34.5 49.55"></polygon><polygon class="cls-3" points="25.75 50.46 28.92 50.13 28.89 49.98 25.75 50.22 25.75 50.46"></polygon><polygon class="cls-3" points="34.59 50.35 31.43 50.87 31.45 50.96 34.59 50.35"></polygon><polygon class="cls-3" points="25.75 52.06 29.13 51.41 29.11 51.26 25.75 51.81 25.75 52.06"></polygon><polygon class="cls-3" points="18.18 53.07 13.45 53.85 13.45 54.44 18.18 53.52 18.18 53.07"></polygon><polygon class="cls-3" points="25.75 53.71 29.35 52.69 29.32 52.54 25.75 53.45 25.75 53.71"></polygon><polygon class="cls-3" points="18.18 55.4 13.45 56.61 13.45 57.23 18.18 55.88 18.18 55.4"></polygon><polygon class="cls-3" points="34.75 51.14 31.64 51.94 31.66 52.03 34.75 51.14"></polygon><polygon class="cls-3" points="19.45 57.39 13.45 59.5 13.45 60.16 19.76 57.74 19.45 57.39"></polygon><polygon class="cls-3" points="34.98 51.92 31.85 53.02 31.87 53.11 34.98 51.92"></polygon><path class="cls-3" d="M25.75,55.45l3.36-1.28a3.38,3.38,0,0,1,.26-.27l-3.62,1.27Z"></path><polygon class="cls-3" points="22.52 58.46 13.45 62.57 13.45 63.29 23.38 58.46 22.52 58.46"></polygon><path class="cls-3" d="M28.39,55.8l-4.17,1.89-.57.64L28.39,56v-.08s0-.1,0-.14"></path><path class="cls-3" d="M35.28,52.67l-3.07,1.39a.35.35,0,0,1,0,.08Z"></path><path class="cls-3" d="M28.51,57.42,13.45,65.9v.8l15.09-9.05,0-.23"></path><path class="cls-3" d="M35.65,53.39l-3,1.67,0,.09Z"></path><path class="cls-3" d="M29,59.2a1.47,1.47,0,0,1-.1-.22l-8.26,5.65h.86Z"></path><path class="cls-3" d="M36.07,54.08,32.9,56.25s0,.08,0,.12Z"></path><polygon class="cls-3" points="19.99 65.1 13.45 69.57 13.45 70.48 18.38 66.91 19.99 65.1"></polygon><path class="cls-3" d="M24.23,65.42l5.71-5a2.28,2.28,0,0,1-.11-.21l-5.89,4.83Z"></path><polygon class="cls-3" points="18.18 69.83 13.45 73.71 13.45 74.77 18.18 70.67 18.18 69.83"></polygon><path class="cls-3" d="M36.55,54.73l-3.61,3,.06.11Z"></path><path class="cls-3" d="M33.86,58.68l1.22-1.26.15-.26-1.48,1.45.07,0,0,0"></path><path class="cls-3" d="M25.72,67.09l5-5.15-.12-.23-5.16,5.05Z"></path><polygon class="cls-3" points="18.18 73.86 13.45 78.49 13.45 79.76 18.18 74.88 18.18 73.86"></polygon><path class="cls-3" d="M25.75,70.59l5.74-7.07c0-.09-.08-.17-.13-.26l-5.61,6.55Z"></path><polygon class="cls-3" points="18.32 78.48 13.45 84.16 13.45 85.75 18.86 79.09 18.32 78.48"></polygon><polygon class="cls-3" points="20.82 80.83 13.45 91.12 13.45 93.17 21.8 80.83 20.82 80.83"></polygon><path class="cls-3" d="M25.75,73.94v1l6.61-9.77c0-.08-.1-.18-.15-.28Z"></path><path class="cls-3" d="M31.63,70.08c.06-.39.12-.76.19-1.12L14.28,98.63h0l3-2.64Z"></path><path class="cls-3" d="M31.22,74.93,24,89.91l1.77-1.58,5.4-12.09c0-.44,0-.88,0-1.31"></path><path class="cls-3" d="M31.48,81.39l-1.06,2.83,1-.9c0-.65.06-1.3.05-1.93"></path><path class="cls-3" d="M56,83.29l.85.75-.57-1.48c-.09.25-.19.49-.28.73"></path><path class="cls-3" d="M57.38,79.05l4.15,9.14,1.78,1.59L57.58,78c-.06.36-.12.72-.2,1.06"></path><path class="cls-3" d="M57.9,74.09,70.21,95.93l3,2.69L57.91,73.09v.45c0,.19,0,.37,0,.55"></path><path class="cls-3" d="M57.68,68.6c0,.29.07.58.1.85l4,5.8v-1Z"></path><polygon class="cls-3" points="65.56 80.83 74.05 93.22 74.05 91.19 66.54 80.83 65.56 80.83"></polygon><path class="cls-3" d="M61.75,70.08l-5-5.77c.07.24.13.47.2.7l4.81,5.86Z"></path><polygon class="cls-3" points="68.57 79.17 74.05 85.84 74.05 84.27 69.11 78.57 68.57 79.17"></polygon><path class="cls-3" d="M61.75,67.13l.2-.22-6.59-6.38.21.49,6.18,6.31Z"></path><polygon class="cls-3" points="69.33 75.06 74.05 79.89 74.05 78.62 69.33 74.05 69.33 75.06"></polygon><path class="cls-3" d="M63.14,65.56l.29-.32-9.49-7.71.14.27Z"></path><polygon class="cls-3" points="69.33 70.86 74.05 74.91 74.05 73.86 69.33 70.02 69.33 70.86"></polygon><polygon class="cls-3" points="51.27 54.32 65.67 64.63 66.52 64.63 51.27 54.32"></polygon><polygon class="cls-3" points="69.33 67.14 69.33 67.25 74.05 70.63 74.05 69.73 67.98 65.62 69.33 67.14"></polygon><polygon class="cls-3" points="74.05 66.86 74.05 66.06 51.71 53.65 74.05 66.86"></polygon><polygon class="cls-3" points="63.97 58.46 63.64 58.09 52.1 52.94 74.05 63.45 74.05 62.74 64.47 58.46 63.97 58.46"></polygon><polygon class="cls-3" points="52.42 52.19 61.75 55.7 61.75 55.41 52.42 52.19"></polygon><polygon class="cls-3" points="67.6 57.9 74.05 60.32 74.05 59.66 67.92 57.55 67.6 57.9"></polygon><polygon class="cls-3" points="69.33 55.96 69.24 56.05 74.05 57.39 74.05 56.78 69.33 55.59 69.33 55.96"></polygon><polygon class="cls-3" points="52.67 51.42 61.75 53.96 61.75 53.7 52.67 51.42"></polygon><polygon class="cls-3" points="69.33 53.72 74.05 54.6 74.05 54.02 69.33 53.26 69.33 53.72"></polygon><polygon class="cls-3" points="52.86 50.64 61.75 52.3 61.75 52.05 52.86 50.64"></polygon><polygon class="cls-3" points="52.98 49.84 61.75 50.7 61.75 50.46 52.98 49.84"></polygon><polygon class="cls-3" points="69.33 51.44 74.05 51.9 74.05 51.33 69.33 50.99 69.33 51.44"></polygon><polygon class="cls-3" points="69.33 49.2 74.05 49.25 74.05 48.68 69.33 48.76 69.33 49.2"></polygon><polygon class="cls-3" points="53.03 49.03 61.75 49.12 61.75 48.88 53.03 49.03"></polygon><polygon class="cls-3" points="69.33 46.96 74.05 46.6 74.05 46.03 69.33 46.52 69.33 46.96"></polygon><polygon class="cls-3" points="53.01 48.22 61.75 47.55 61.75 47.31 53.01 48.22"></polygon><polygon class="cls-3" points="69.27 44.71 74.05 43.91 74.05 43.33 68.92 44.32 69.27 44.71"></polygon><polygon class="cls-3" points="52.91 47.41 61.75 45.95 61.75 45.71 52.91 47.41"></polygon><polygon class="cls-3" points="67.59 42.81 74.05 41.15 74.05 40.54 67.28 42.47 67.59 42.81"></polygon><polygon class="cls-3" points="52.75 46.62 62.28 44.17 62.6 43.81 52.75 46.62"></polygon><polygon class="cls-3" points="73.93 38.3 72.23 38.3 52.52 45.85 73.93 38.3"></polygon><polygon class="cls-3" points="67.19 38.3 66.18 38.3 52.22 45.09 67.19 38.3"></polygon><polygon class="cls-3" points="62.62 38.3 61.98 38.3 51.86 44.37 62.62 38.3"></polygon><polygon class="cls-3" points="59.29 38.3 58.85 38.3 51.43 43.68 59.29 38.3"></polygon><polygon class="cls-3" points="56.7 38.3 56.4 38.3 50.95 43.03 56.7 38.3"></polygon><polygon class="cls-3" points="54.62 38.3 54.4 38.3 50.41 42.43 54.62 38.3"></polygon><polygon class="cls-3" points="52.88 38.3 52.72 38.3 49.83 41.87 52.88 38.3"></polygon><polygon class="cls-3" points="51.38 38.3 51.26 38.3 49.19 41.37 51.38 38.3"></polygon><polygon class="cls-3" points="50.06 38.3 49.97 38.3 48.52 40.92 50.06 38.3"></polygon><polygon class="cls-3" points="48.87 38.3 48.8 38.3 47.8 40.54 48.87 38.3"></polygon><polygon class="cls-3" points="47.78 38.3 47.72 38.3 47.06 40.22 47.78 38.3"></polygon><polygon class="cls-3" points="46.76 38.3 46.71 38.3 46.29 39.96 46.76 38.3"></polygon><polygon class="cls-3" points="45.78 38.3 45.74 38.3 45.51 39.77 45.78 38.3"></polygon><polygon class="cls-3" points="44.84 38.3 44.8 38.3 44.7 39.65 44.84 38.3"></polygon><polygon class="cls-3" points="25.75 55.96 25.75 55.45 25.75 55.17 25.75 53.71 25.75 53.45 25.75 52.06 25.75 51.81 25.75 50.45 25.75 50.22 25.75 48.88 25.75 48.65 25.75 47.31 25.75 47.07 25.75 45.71 25.75 45.47 25.75 44.77 24.95 43.87 24.62 43.49 23.54 42.27 20.4 42.27 20.37 42.3 20.07 42.64 18.73 44.15 18.39 44.54 18.18 44.77 18.18 46.33 18.18 46.77 18.18 48.57 18.18 49 18.18 50.8 18.18 51.24 18.18 53.07 18.18 53.52 18.18 55.4 18.18 55.88 18.18 55.96 19.45 57.39 19.76 57.74 20.4 58.46 22.52 58.46 23.38 58.46 23.54 58.46 23.65 58.33 24.22 57.69 25.75 55.96"></polygon><polygon class="cls-3" points="25.75 70.59 25.75 69.81 25.75 67.14 25.72 67.09 25.42 66.76 24.23 65.42 23.94 65.09 23.54 64.63 21.52 64.63 20.66 64.63 20.4 64.63 19.99 65.1 18.38 66.91 18.18 67.14 18.18 69.83 18.18 70.67 18.18 73.86 18.18 74.88 18.18 78.32 18.32 78.48 18.86 79.09 20.4 80.83 20.82 80.83 21.8 80.83 23.54 80.83 25.75 78.32 25.75 74.97 25.75 73.94 25.75 70.59"></polygon><polygon class="cls-104" points="69.33 46.96 69.33 46.52 69.33 44.77 69.27 44.71 68.92 44.32 67.59 42.81 67.28 42.47 67.11 42.27 63.97 42.27 62.6 43.81 62.28 44.17 61.75 44.77 61.75 45.71 61.75 45.95 61.75 47.31 61.75 47.55 61.75 48.88 61.75 49.12 61.75 50.46 61.75 50.7 61.75 52.05 61.75 52.3 61.75 53.7 61.75 53.96 61.75 55.42 61.75 55.7 61.75 55.96 63.64 58.09 63.97 58.46 64.47 58.46 67.11 58.46 67.6 57.9 67.92 57.55 69.24 56.05 69.33 55.96 69.33 55.59 69.33 53.72 69.33 53.26 69.33 51.44 69.33 51 69.33 49.2 69.33 48.76 69.33 46.96"></polygon><polygon class="cls-104" points="61.95 66.91 61.75 67.13 61.75 67.33 61.75 70.08 61.75 70.87 61.75 74.22 61.75 75.25 61.75 78.32 63.97 80.83 65.56 80.83 66.54 80.83 67.11 80.83 68.57 79.17 69.11 78.57 69.33 78.32 69.33 75.06 69.33 74.04 69.33 70.86 69.33 70.02 69.33 67.25 69.33 67.13 67.98 65.62 67.11 64.63 66.52 64.63 65.67 64.63 63.97 64.63 63.43 65.24 63.14 65.56 61.95 66.91"></polygon><path class="cls-104" d="M70.21,95.94l-6.89-6.16-1.79-1.59L56.89,84,56,83.29c-.23.56-.47,1.11-.7,1.64-1.19,2.77-2.14,4.95-1.27,8.17a12.16,12.16,0,0,0,1.85,4.1c.6.93,1.16,1.81.51,2.62-1.2,1.5-4.3,1.23-6.56,1-.48,0-.89-.08-1.17-.08a1.4,1.4,0,0,0-.29,0l.25.29c.58.65,1.31,1.46,1,2.33a1.25,1.25,0,0,1-.86.79c-1.58.46-5.12-1.2-6.44-2.27-.34-.27-1.06.34-2,1.24s-2.31,2.09-3.73,2.15h-.13a2.92,2.92,0,0,1-2.62-1.39,1.71,1.71,0,0,1,.35-1.91c.24-.26.22-.41.21-.47-.09-.61-1.4-1.43-2.45-2.1-1.47-.92-2.85-1.79-2.93-3a.62.62,0,0,1,0-.19l.12-.54a77.49,77.49,0,0,0,2.27-12.42l-1,.9-4.61,4.11L24,89.91,17.24,96l-3,2.64c1.3,2.5,4.06,5.22,7.75,7.51a42.43,42.43,0,0,0,43.44,0c3.7-2.29,6.46-5,7.76-7.51h0Z"></path><path class="cls-3" d="M43.48,64.53a1.11,1.11,0,0,0,1.86-.27l4.27-1.66,4,2.62-4.6-4.09a2.34,2.34,0,0,1-2,1.47c-1.59,0-2.91.46-2.88,1.43,0,0-.91-1.41-2.15-1.35a7.4,7.4,0,0,1-3.1-1.11l-.69.71Z"></path><path class="cls-3" d="M52.09,67.34c-.38,1.29-2.24.77-2.24.77,2.5,2.56,4-.56,4-.56-.87.54-1.62.21-1.81-.21"></path><path class="cls-3" d="M31.22,59.9a.7.7,0,0,1-.36.05c.2.32.37.61.54.87Z"></path><path class="cls-3" d="M31.14,59.33A1.69,1.69,0,0,1,30.08,59c.16.4.7.55,1.12.61Z"></path><path class="cls-3" d="M42.14,50.23a1.74,1.74,0,0,0,1.09,0A1,1,0,0,1,43,50c0-.07.12-.21.12-.21s.5.11.63.08.1.11.1.11l-.07.14a.41.41,0,0,1-.12.13h0c.94,0,.55.2,1.42,0s.53-1.52.53-1.52c1.14-.74-.52-1.57-.91-1.78s-1.18-.8-1.18-.8a6.51,6.51,0,0,1-1.37,1.18c-.42.19-.35.71-.26,1a1,1,0,0,1,.25-.12,2.41,2.41,0,0,1,.63,0c.11,0,.3,0,.37,0s.06.25-.11.32c.25,0,.28.1.28.1s0,.2-.12.24a2.55,2.55,0,0,1-.91.07c-.23,0-.27-.16-.24-.37a1.94,1.94,0,0,1,.56-.07l-.24,0a4.47,4.47,0,0,0-.45,0,1.1,1.1,0,0,0,.06.16c-.33.8-.17,1.46.18,1.65m1.5-2c.09.07.31,0,.44,0a3.5,3.5,0,0,1,.76-.13c.23,0,.63.17.56.26s-.3-.16-.8,0l-.17.06.28,0c.3,0,.47.06.49.19s-.25.3-.48.34a2.35,2.35,0,0,1-1-.07s-.11-.27,0-.32h0c-.18-.1-.2-.42-.13-.36"></path><path class="cls-3" d="M41.84,53s.18,1.55,1.49,1.67a2.13,2.13,0,0,0,2.36-1.55A7.06,7.06,0,0,0,45.14,52a1.7,1.7,0,0,1-1.59,1.35c-.42,0-.81,0-1.1-.87-.07-.19-.25-.6-.25-.6Z"></path><path class="cls-3" d="M37.52,60.86c-.35-3.31,2.58-7.24,2.58-7.24-2.87,1.48-4.25,4.39-5.42,7.12,1-.73,1.64-1,2.84.12"></path><path class="cls-3" d="M32.49,61.63c.13.39-.06.54-.28.6,1.29,2,2,2.76,3,2.92a2,2,0,0,0,2.31-1.48c-2,1.41-4.61-1.32-5.21-3.72.07.73.16,1.42.21,1.68"></path><path class="cls-3" d="M43.43,52.18a.9.9,0,0,0,.8-.51l.44-.42a3.33,3.33,0,0,1-.69-.48,1.07,1.07,0,0,0-1,0,2,2,0,0,0-.52.36l.43.67s0,.44.59.41m.41-1.29s-.29.61-.46.61-.37-.61-.37-.61a2.5,2.5,0,0,0,.83,0"></path><path class="cls-3" d="M27.92,44.11a.75.75,0,0,0,0,.15l0,.16,0,.21.23,1.29,0,.19.2,1.22,0,.17.2,1.18,0,.15L28.89,50l0,.15.19,1.13,0,.14.19,1.14,0,.15.18,1.06a1.1,1.1,0,0,0-.16.15,3.38,3.38,0,0,0-.26.27,2.73,2.73,0,0,0-.72,1.63s0,.09,0,.14V56a12.67,12.67,0,0,0,.12,1.39l0,.23A5.73,5.73,0,0,0,28.92,59a1.47,1.47,0,0,0,.1.22,1.81,1.81,0,0,0,.38.52l.42.53h0a2.28,2.28,0,0,0,.11.21l.64,1.24.12.23c.2.4.42.83.63,1.26l0,.06c.05.09.09.17.13.26l.72,1.4c0,.1.1.2.15.28a5.3,5.3,0,0,0,.28.47,24.47,24.47,0,0,0-.82,3.3c-.07.35-.13.72-.19,1.11a38.29,38.29,0,0,0-.41,4.85c0,.43,0,.86,0,1.31q0,1.61.18,3.36a17.44,17.44,0,0,1,.09,1.79c0,.63,0,1.27-.05,1.93a77.29,77.29,0,0,1-2.27,12.42l-.12.54a.62.62,0,0,0,0,.19c.08,1.18,1.46,2,2.93,3,1.05.67,2.36,1.49,2.45,2.1,0,.06,0,.21-.21.47a1.71,1.71,0,0,0-.35,1.91,2.92,2.92,0,0,0,2.62,1.39h.13c1.42-.06,2.65-1.17,3.73-2.15s1.71-1.51,2-1.24c1.32,1.07,4.86,2.73,6.44,2.27a1.25,1.25,0,0,0,.86-.79c.3-.87-.43-1.68-1-2.33l-.25-.29a1.4,1.4,0,0,1,.29,0c.28,0,.7,0,1.17.08,2.26.19,5.36.46,6.57-1,.64-.81.08-1.69-.52-2.62a12,12,0,0,1-1.84-4.1c-.88-3.22.07-5.4,1.26-8.17.23-.53.47-1.08.7-1.64.09-.24.19-.48.28-.73a23.12,23.12,0,0,0,1.06-3.51c.08-.34.14-.7.2-1.06a23.55,23.55,0,0,0,.32-3.76v-.14c0-.18,0-.36,0-.55v-.45a30.18,30.18,0,0,0-.13-3.64c0-.27-.06-.56-.1-.85A28.42,28.42,0,0,0,56.94,65c-.07-.23-.13-.46-.2-.7-.31-1-.69-2.12-1.17-3.29l-.21-.49c-.12-.27-.23-.55-.36-.83h0c-.36-.79-.65-1.4-.92-1.9l-.14-.27a9.32,9.32,0,0,0-2.09-2.62l-.55-.53-.06-.06-1.44-1.1-.1-.06A10.45,10.45,0,0,0,48,52.53a2.13,2.13,0,0,0,.54-1.69,3.18,3.18,0,0,0-.4-1,5.68,5.68,0,0,1-.43-1,4.62,4.62,0,0,0-1.07-3l.48-1.27a.64.64,0,0,0-1-.75.54.54,0,0,1-.43.07s-.07,0-.07,0a.58.58,0,0,0-.1-.43,1,1,0,0,0-.86-.85,5.85,5.85,0,0,0-.33-.61.66.66,0,0,0-.55-.31.65.65,0,0,0-.55.31,4.4,4.4,0,0,0-.33.61,1,1,0,0,0-.87.87.8.8,0,0,0-.08.16.34.34,0,0,1-.08.16.58.58,0,0,1-.26-.08h0a.64.64,0,0,0-1,.71l.52,1.55a7.59,7.59,0,0,0-1,3.83.86.86,0,0,1-.13.5,2.12,2.12,0,0,0-.35,1,2,2,0,0,0,.22,1.39L39,53l-.84.47-.1.07A11.59,11.59,0,0,0,36.71,55a16.71,16.71,0,0,0-1.48,2.13l-.15.26c-.18.31-.35.61-.51.91s.14.65,0,.92a3.86,3.86,0,0,0-.68-.57l0,0-.07,0a2.44,2.44,0,0,1-.75-.8l-.06-.11-.07-.11a7.37,7.37,0,0,0,0-1.22.49.49,0,0,0,0-.12,6.16,6.16,0,0,0-.18-1.1l0-.09a3.45,3.45,0,0,0-.43-.92.35.35,0,0,0,0-.08,3.11,3.11,0,0,0-.2-.25l-.14-.7,0-.09-.19-1,0-.09-.19-1,0-.09-.2-1V49.8l-.2-1,0-.09-.2-1,0-.1-.22-1.08,0-.12-.23-1.15,0-.14-.23-1.18a.14.14,0,0,0,0-.06.66.66,0,0,0-.09-.19h0a1.23,1.23,0,0,0-1.12-.52l-.17,0-.25.11a1.11,1.11,0,0,0-.48.85m3.44,10s1.14.86.79,3.59c.91,1.76,1,1.08,2,2.53a37.33,37.33,0,0,1,3-4.81,13.54,13.54,0,0,1,1.09-1.2,2.14,2.14,0,0,1,.39-.28l.63-.36a12.53,12.53,0,0,0,1.68-1s-.91-.06-.72-1.33c.13-.86.43-.6.48-1.52.16-3,1.14-3.73,1.12-3.75l-.64-1.88a1.13,1.13,0,0,0,.77.23c.44,0,.6-.63.6-.63a.91.91,0,0,0,.52.38v0c0-.26.23-.23.23-.23s0,.26.11.24a.15.15,0,0,0,.13-.14s-.17,0-.17-.08.16-.05.16-.05-.22-.32-.41-.28-.17.33-.17.33a.35.35,0,1,1,.13-.69.59.59,0,0,1,.54.45,4.51,4.51,0,0,1-.21-.62,2.72,2.72,0,0,1,.34-.74,2.7,2.7,0,0,1,.35.74,4.85,4.85,0,0,1-.22.62.62.62,0,0,1,.55-.45.35.35,0,1,1,.13.69s0-.28-.18-.33-.38.2-.4.28.15,0,.15.05-.16.08-.16.08a.15.15,0,0,0,.13.14c.13,0,.15-.21.11-.24s.22,0,.23.23a.09.09,0,0,1,0,.05.89.89,0,0,0,.52-.36.71.71,0,0,0,.53.71,1.18,1.18,0,0,0,1-.16l-.58,1.54-.06.16s1.07.5,1.19,2.93c.32,1.08.73,1.37.84,2,.17.91-1.14,1.9-1.14,1.9a23,23,0,0,1,2.45.8,2,2,0,0,1,.31.19l1.24.95.11.09c1.65,1.62,1.95,1.68,3.51,5.08A28.9,28.9,0,0,1,57.2,74.23c-.08,9.78-5.61,12.38-3.8,19,.87,3.83,3.22,5.22,2.48,6.15-1.24,1.53-5.69.74-7.22.71-3.06-.06.76,1.83.34,3.07s-4.76-.56-6.27-1.78-3.73,3.15-6.22,3.24c-1.45.06-2.91-1.06-1.88-2.22,2-2.26-4.87-4-5-6,1.32-5.51,2.87-11.79,2.38-16.89-.81-8.21,1.25-13.82,1.39-14-.07.06.1.56-1.53-2.61-.73-1.48-1.54-3-1.54-3l-.5-.62s-.75-.54-.83-3.35a2.63,2.63,0,0,1,1.2-1.9l-1.67-9.87s0-.36.32-.38a.61.61,0,0,1,.53.25Z"></path><path class="cls-3" d="M53.73,65.76l-1.29.76s.75-.42,1.12,0,1.93.75,2.61,2.41a5,5,0,0,1,.41,2.83c.11-.51.74-4.36-2.85-6"></path><path class="cls-3" d="M28.71,43.93s.39.07.5.82S30.62,54,30.62,54s0,0,.38.1l-1.71-9.9a.44.44,0,0,0-.58-.23"></path><path class="cls-3" d="M30.39,54.32c-.32.09-.41.34-.63.67a1.94,1.94,0,0,0-.36.75c-.06.45.18,2.93,1.06,3.16.22.06.4-.2.5-.47l-.17-.84-.08,0s-.12-1.6,1.05-.74c0,0,.16-.11-.05-.49-.25-.19-.37-.28-.56-.24a.78.78,0,0,0-.52.29,1,1,0,0,1,.46-.49.76.76,0,0,1,.7.33.52.52,0,0,0-.09-.59,2.49,2.49,0,0,0-.59-.16.81.81,0,0,0-.59.42,1.22,1.22,0,0,1,.39-.55,1.11,1.11,0,0,1,.78.15c0-.11.06-.24-.18-.42a1.94,1.94,0,0,0-.55-.2.89.89,0,0,0-.66.37,1,1,0,0,1,.45-.49.77.77,0,0,1,.7.18c.14.07.15,0,.13-.07a.61.61,0,0,0-.46-.5,1.16,1.16,0,0,0-.73,0"></path><path class="cls-3" d="M31.16,56.91l.8,4.77c.27-.18.31-.1.32-.07l-.75-4.46c-.12-.41-.37-.24-.37-.24"></path><path class="cls-3" d="M55.36,68.65c.34,1.61.7,9.37-2,13.11a13.36,13.36,0,0,0-2.58,6.33c2.8-6,4.26-5.82,4.9-9.71,1-6.15-.34-9.73-.34-9.73"></path><path class="cls-3" d="M51.18,65.6c-.19.09-.25.22-.35.48s-.24.5-.57.36a18.8,18.8,0,0,1-1.44-1.51c-.23-.22-.6-.08-.22.37.18.24.75.86.62,1s-1.35-.77-1.46-.57.71.71,1.1.93c.07,0,.12.06.08.13s-.07.06-.29,0c-.55,0-1.06-.49-1-.17s1.2.5,1.17.62-.83-.13-.87,0,.13.24.93.43c.56.11,1.9.61,2.53-.64,0,0-.21.2-.21-.33s.17-.79.38-.86-.09-.37-.38-.22"></path><path class="cls-3" d="M43.71,62.37c-.23-2.31,3.23-8.75,3.23-8.75s-1.49,2.15-3.18,2.17c-2,0-2.72-2.27-2.72-2.27.57,2.71,2.67,8.85,2.67,8.85"></path><path class="cls-3" d="M49.64,60.71c2.32,2.1,6,5.64,6,5.64l-1.2-4.28A14.31,14.31,0,0,0,48.69,54c1.6,2.34,1.72,5.3,1,6.73"></path><path class="cls-3" d="M49.54,86.56s-2.64,6.16-2.37,10.66c.07.8,2.14,2.4,3.84,1.93,0,0-2.59-6.41-1.47-12.59"></path><path class="cls-3" d="M46.3,100.25A12.68,12.68,0,0,1,45.77,97a8.58,8.58,0,0,1,.51-2.29,6.91,6.91,0,0,0,.78-2.88c-.66.62-1.67.8-2.46-.82-.3.68-.64,1.43,0,4a4.4,4.4,0,0,1-.47,2.35,4.33,4.33,0,0,0-.38,1.71c0,.45.57.59.67.68.22.29-.14.83.62,1.94s2.77,1.28,3.07,1.27.26-.78,0-1c-.48-.33-1.63-1.17-1.76-1.78"></path><path class="cls-3" d="M36.75,96.83A73.66,73.66,0,0,0,35,81.14c-1.16-4.32-2.38-10.29-.66-14.6a22.25,22.25,0,0,0-1.48,11.21c.92,5.89.28,9-2.47,18.34a4,4,0,0,0,2.77,1.68c.53-3.7.85-11.92.85-11.92.17,3.65-.1,3.68.47,11.92a1.64,1.64,0,0,0,2.25-.94"></path><path class="cls-3" d="M37.64,91.4c0,1.11,0,1.81,0,2.71a29,29,0,0,1-.26,5.29c-.12.53-.2,1.5-2.24,3.54-.32.32.62,1,.62,1s.88.29,2.16-.84c.79-.69.74-1.52.91-1.72s.8-1,.73-1.35a4.73,4.73,0,0,0-.32-1,23.12,23.12,0,0,1,.08-2.53c.17-.68.06-.94.52-1.47.92-1.08.71-3.5.71-3.5-.92,1.26-2.93-.15-2.93-.15"></path><path class="cls-3" d="M44.05,83.53c-.21,3.33,1.17,4.75,1.15,5.75,0,.81-1,1,.06,2.11.72.72,1.19.53,1.19.53a1,1,0,0,0,.7-1c0-.47-.13-.66-.58-.71a.55.55,0,0,1-.49-.77c.85.74,1-.2,1-.2a5.33,5.33,0,0,1,.83-2.49,3.63,3.63,0,0,0,.74-1.93,11.68,11.68,0,0,1-4.56-1.3"></path><path class="cls-3" d="M51.19,78.54,49.24,72.3l-4.57-4.63-2.12-.48-3.81-3.62c.12.16.21.35.33.55.46.85,1.51,2.1.6,3.42,0,0-2,4.54-2.53,5.95-.66,2.12-1,3.71-1,3.71.51,1.17,2.3,1.62,2.3,1.62l2.17-7.89L39.2,79c1.09,1.19,3.23.78,3.23.78l.82-8.47-.08,8.43a4.38,4.38,0,0,0,3.69-.38l-.41-7.81,1,7.81c3.19.59,3.74-.82,3.74-.82"></path><path class="cls-3" d="M40.7,83.77c-1.76.34-2.76-1.56-2.76-1.56s-.25.58,0,3.33c.15,1.19.54,2.8.5,2.82a10.1,10.1,0,0,0-.54,2.58,2,2,0,0,0,2.81.13,2.75,2.75,0,0,1-.12-1.23,1,1,0,0,1-1.74-.21s.88.76,1.76-.42a14.31,14.31,0,0,0,1.2-2,9.77,9.77,0,0,0,.58-2.46s-1-1.13-1.73-1"></path><path class="cls-3" d="M50.84,94C51.72,98.9,53,99.5,53,99.5a2.81,2.81,0,0,0,1-.12,2.31,2.31,0,0,0,.79-.67S50,91.22,53.74,84.35c0,0-3.8,4.7-2.9,9.61"></path><path class="cls-3" d="M46.15,82.29c1.8,1.38,4.26-.44,4.26-.44a2.14,2.14,0,0,0,2.1-1.47,2.64,2.64,0,0,1-2.26,1c-1.64,2-4.18.18-4.18.18-2.09,1.24-4.69.14-4.66.23-2.14.7-3.67-1.33-3.67-1.33-1.76-.06-2.35-2.37-2.35-2.37.55,2.68,2.1,2.91,2.1,2.91.94,2,4,1.47,4,1.47a6.64,6.64,0,0,0,2.15.56,3,3,0,0,0,2.54-.77"></path><path class="cls-104" d="M43.38,51.5c.17,0,.46-.61.46-.61a2.5,2.5,0,0,1-.83,0s.16.61.37.61"></path><path class="cls-104" d="M43.77,48.56h0c-.12,0,0,.32,0,.32a2.35,2.35,0,0,0,1,.07c.23,0,.5-.21.48-.34s-.19-.22-.49-.19l-.28,0,.17-.06c.5-.21.73,0,.8,0s-.33-.23-.56-.26a3.5,3.5,0,0,0-.76.13c-.13,0-.35.06-.44,0s0,.26.13.36"></path><path class="cls-104" d="M28.82,43.77c-.29,0-.31.38-.31.38L30.18,54a2.63,2.63,0,0,0-1.2,1.9c.08,2.81.83,3.35.83,3.35l.5.62s.81,1.53,1.54,3c1.63,3.17,1.45,2.67,1.53,2.61-.14.21-2.2,5.82-1.4,14,.5,5.1-1.05,11.38-2.37,16.89.15,2,7,3.75,5,6-1,1.16.43,2.28,1.88,2.22,2.49-.09,4.69-4.47,6.22-3.24s5.85,3,6.27,1.78-3.4-3.13-.34-3.07c1.53,0,6,.82,7.22-.71.74-.93-1.61-2.32-2.48-6.15-1.81-6.66,3.72-9.26,3.8-19A28.9,28.9,0,0,0,54.36,60c-1.56-3.4-1.86-3.46-3.51-5.07l-.11-.1-1.24-.95a2.32,2.32,0,0,0-.31-.19,23,23,0,0,0-2.45-.8s1.31-1,1.14-1.9c-.11-.67-.52-1-.84-2C46.93,46.49,45.85,46,45.85,46l.06-.16.58-1.54a1.18,1.18,0,0,1-1,.16.71.71,0,0,1-.53-.71.89.89,0,0,1-.52.36.09.09,0,0,0,0-.05c0-.26-.23-.23-.23-.23s0,.26-.11.24a.15.15,0,0,1-.13-.14s.16,0,.16-.08-.15-.05-.15-.05.22-.32.4-.28.18.33.18.33a.35.35,0,1,0-.13-.69.62.62,0,0,0-.55.45,4.85,4.85,0,0,0,.22-.62,2.78,2.78,0,0,0-.35-.75,2.81,2.81,0,0,0-.34.75,4.51,4.51,0,0,0,.21.62.59.59,0,0,0-.54-.45.35.35,0,1,0-.13.69s0-.28.17-.33.38.2.41.28-.16,0-.16.05.17.08.17.08a.15.15,0,0,1-.13.14c-.13,0-.16-.21-.11-.24s-.22,0-.23.23v0a.91.91,0,0,1-.52-.38s-.15.59-.6.63a1.13,1.13,0,0,1-.77-.23L41.83,46s-1,.78-1.12,3.75c-.05.92-.35.66-.48,1.52-.19,1.27.72,1.33.72,1.33a12.53,12.53,0,0,1-1.68,1l-.63.36a2.14,2.14,0,0,0-.39.28,12.15,12.15,0,0,0-1.09,1.2,37.33,37.33,0,0,0-3,4.81c-1-1.45-1.1-.77-2-2.53.35-2.73-.79-3.59-.79-3.59L29.36,44a.61.61,0,0,0-.54-.25M30.08,59a1.69,1.69,0,0,0,1.06.32l.06.29c-.42-.06-1-.21-1.12-.61m1.14.89.18.92c-.17-.26-.34-.55-.54-.87a.7.7,0,0,0,.36-.05M34.5,97.77c-.57-8.24-.3-8.27-.47-11.92,0,0-.32,8.22-.84,11.92a4,4,0,0,1-2.78-1.68c2.75-9.34,3.39-12.45,2.47-18.34a22.25,22.25,0,0,1,1.48-11.21c-1.72,4.31-.5,10.28.66,14.6a73.66,73.66,0,0,1,1.73,15.69,1.64,1.64,0,0,1-2.25.94m3.74-35.49.69-.71A7.4,7.4,0,0,0,42,62.68c1.24-.06,2.15,1.35,2.15,1.35,0-1,1.29-1.45,2.88-1.43a2.34,2.34,0,0,0,2-1.47l4.6,4.09-4-2.62-4.27,1.66a1.11,1.11,0,0,1-1.86.27Zm11.61,5.83s1.86.52,2.24-.77c.19.42.94.75,1.81.21,0,0-1.55,3.12-4,.56m-2.4,11.25-1-7.81.41,7.81a4.38,4.38,0,0,1-3.69.38l.08-8.43-.82,8.47s-2.14.41-3.23-.78l1.37-8.07L38.4,78.82s-1.79-.45-2.3-1.62c0,0,.38-1.59,1-3.71.51-1.41,2.51-5.93,2.53-6,.91-1.31-.14-2.56-.6-3.41-.12-.2-.21-.39-.33-.55l3.81,3.62,2.12.48,4.57,4.63,1.95,6.24s-.55,1.41-3.74.82m4.11-13.54c-.21.07-.38.34-.38.86s.21.33.21.33c-.63,1.25-2,.75-2.53.64-.8-.19-1-.35-.93-.43s.84.2.87,0-1.21-.36-1.17-.62.47.13,1,.17c.22,0,.26,0,.29,0s0-.09-.08-.13c-.39-.22-1.18-.61-1.1-.93s1.33.7,1.46.57-.44-.74-.62-1c-.38-.45,0-.59.22-.37a18.8,18.8,0,0,0,1.44,1.51c.33.14.46-.1.57-.36s.16-.39.35-.48.63.16.38.22M39.86,95.05c-.46.53-.35.79-.52,1.47a23.12,23.12,0,0,0-.08,2.53,4.73,4.73,0,0,1,.32,1c.07.37-.63,1.13-.73,1.35s-.12,1-.91,1.72c-1.28,1.13-2.16.84-2.16.84s-.94-.66-.62-1c2-2,2.12-3,2.24-3.54a29,29,0,0,0,.26-5.29c0-.9-.06-1.6,0-2.71,0,0,2,1.41,2.93.15,0,0,.21,2.42-.71,3.5m2-7.82a13.72,13.72,0,0,1-1.2,2c-.88,1.18-1.76.43-1.76.43a1,1,0,0,0,1.74.21,2.75,2.75,0,0,0,.12,1.23,2,2,0,0,1-2.81-.13,10.1,10.1,0,0,1,.54-2.58s-.36-1.63-.5-2.82c-.29-2.75,0-3.33,0-3.33s1,1.9,2.76,1.56c.76-.13,1.73,1,1.73,1a9.77,9.77,0,0,1-.58,2.46m-.39-4.73s-3,.53-4-1.47c0,0-1.55-.23-2.1-2.91,0,0,.59,2.31,2.35,2.37,0,0,1.53,2,3.67,1.33,0-.09,2.57,1,4.66-.23,0,0,2.54,1.86,4.18-.18a2.64,2.64,0,0,0,2.26-1,2.14,2.14,0,0,1-2.1,1.47s-2.46,1.82-4.26.44a3,3,0,0,1-2.54.77,6.64,6.64,0,0,1-2.15-.56M47,89.26s-.11.93-1,.19a.55.55,0,0,0,.49.77c.45,0,.58.24.58.71a1,1,0,0,1-.7,1s-.47.19-1.19-.53c-1.08-1.06-.06-1.3-.06-2.11,0-1-1.36-2.42-1.15-5.75a11.68,11.68,0,0,0,4.56,1.3,3.63,3.63,0,0,1-.74,1.93,5.36,5.36,0,0,0-.83,2.5m1,12.77c.31.24.43,1,0,1s-2.31-.21-3.07-1.26-.4-1.65-.62-2c-.1-.09-.63-.23-.67-.68a4.33,4.33,0,0,1,.38-1.71,4.4,4.4,0,0,0,.47-2.35c-.64-2.62-.3-3.37,0-4,.79,1.62,1.8,1.44,2.46.82a6.91,6.91,0,0,1-.78,2.88A8.58,8.58,0,0,0,45.77,97a12.68,12.68,0,0,0,.53,3.22c.13.62,1.28,1.45,1.76,1.78m-.89-4.81c-.27-4.5,2.37-10.66,2.37-10.66C48.42,92.74,51,99.15,51,99.15c-1.69.47-3.77-1.13-3.84-1.93m7.68,1.49a2.31,2.31,0,0,1-.79.67,2.81,2.81,0,0,1-1,.12s-1.31-.6-2.19-5.54,2.9-9.61,2.9-9.61C50,91.22,54.85,98.71,54.85,98.71m.85-20.33c-.64,3.88-2.1,3.68-4.9,9.71a13.36,13.36,0,0,1,2.58-6.33c2.68-3.74,2.32-11.51,2-13.11,0,0,1.36,3.58.34,9.73m.88-6.62a5,5,0,0,0-.41-2.83c-.68-1.66-2.2-2-2.61-2.41s-1.12,0-1.12,0l1.29-.76c3.59,1.64,3,5.49,2.85,6m-2.13-9.69,1.2,4.28s-3.69-3.54-6-5.64c.77-1.43.65-4.39-1-6.73a14.31,14.31,0,0,1,5.76,8.09M41.9,48.42a4.47,4.47,0,0,1,.45,0l.24,0a1.94,1.94,0,0,0-.56.07c0,.21,0,.34.24.37a2.55,2.55,0,0,0,.91-.07c.14,0,.12-.24.12-.24s0-.06-.28-.1c.17-.07.17-.39.11-.32s-.26,0-.37,0a2.41,2.41,0,0,0-.63,0,1,1,0,0,0-.25.12c-.09-.32-.16-.84.26-1a6.51,6.51,0,0,0,1.37-1.18s.78.57,1.18.8,2.05,1,.91,1.78c0,0,.31,1.29-.53,1.52s-.48,0-1.42,0h0a.41.41,0,0,0,.12-.13l.07-.14s0-.12-.1-.11-.63,0-.63-.08-.16.14-.12.21a1,1,0,0,0,.25.29,1.74,1.74,0,0,1-1.09,0c-.35-.19-.51-.85-.18-1.65a1.1,1.1,0,0,1-.06-.16m.51,2.68a2,2,0,0,1,.52-.36,1.07,1.07,0,0,1,1,0,3.33,3.33,0,0,0,.69.48l-.44.42a.9.9,0,0,1-.8.51c-.63,0-.59-.41-.59-.41Zm0,1.4c.29.89.68.9,1.1.87A1.7,1.7,0,0,0,45.14,52a7.06,7.06,0,0,1,.55,1.14,2.14,2.14,0,0,1-2.36,1.56C42,54.59,41.84,53,41.84,53l.36-1.14s.18.41.25.6m1.31,3.29c1.69,0,3.18-2.16,3.18-2.16s-3.46,6.43-3.23,8.74c0,0-2.1-6.14-2.67-8.85,0,0,.75,2.3,2.72,2.27M40.1,53.62s-2.93,3.93-2.58,7.24c-1.19-1.09-1.88-.85-2.84-.12,1.17-2.73,2.55-5.64,5.42-7.12M37.49,63.67a2,2,0,0,1-2.31,1.48c-1-.16-1.68-.88-3-2.92.22-.06.41-.21.28-.6s-.14-1-.21-1.68c.6,2.4,3.22,5.13,5.21,3.72M32.28,61.6s-.05-.1-.32.08l-.8-4.77s.25-.17.37.24Zm-.7-6.74s0,.14-.13.07a.77.77,0,0,0-.7-.18,1,1,0,0,0-.45.49.93.93,0,0,1,.66-.37,1.94,1.94,0,0,1,.55.2c.24.18.21.31.18.42a1.11,1.11,0,0,0-.78-.15,1.22,1.22,0,0,0-.39.55.81.81,0,0,1,.59-.42,2.49,2.49,0,0,1,.59.16.52.52,0,0,1,.09.59.76.76,0,0,0-.7-.33,1.09,1.09,0,0,0-.46.49.78.78,0,0,1,.52-.29c.19,0,.31,0,.56.24.21.38.05.49.05.49-1.17-.86-1.05.74-1.05.74l.08,0,.17.84c-.1.27-.28.53-.5.47-.88-.23-1.12-2.71-1.06-3.16a1.94,1.94,0,0,1,.36-.75c.22-.33.31-.58.63-.67a1.16,1.16,0,0,1,.73,0,.61.61,0,0,1,.46.5m-.58-.8c-.34-.14-.38-.1-.38-.1s-1.3-8.46-1.41-9.21-.5-.82-.5-.82a.44.44,0,0,1,.58.23Z"></path></svg>